ffmpeg version 2.8.11-0ubuntu0.16.04.1 Copyright (c) 2000-2017 the FFmpeg developers
  built with gcc 5.4.0 (Ubuntu 5.4.0-6ubuntu1~16.04.4) 20160609
  configuration: --prefix=/usr --extra-version=0ubuntu0.16.04.1 --build-suffix=-ffmpeg --toolchain=hardened --libdir=/usr/lib/x86_64-linux-gnu --incdir=/usr/include/x86_64-linux-gnu --cc=cc --cxx=g++ --enable-gpl --enable-shared --disable-stripping --disable-decoder=libopenjpeg --disable-decoder=libschroedinger --enable-avresample --enable-avisynth --enable-gnutls --enable-ladspa --enable-libass --enable-libbluray --enable-libbs2b --enable-libcaca --enable-libcdio --enable-libflite --enable-libfontconfig --enable-libfreetype --enable-libfribidi --enable-libgme --enable-libgsm --enable-libmodplug --enable-libmp3lame --enable-libopenjpeg --enable-libopus --enable-libpulse --enable-librtmp --enable-libschroedinger --enable-libshine --enable-libsnappy --enable-libsoxr --enable-libspeex --enable-libssh --enable-libtheora --enable-libtwolame --enable-libvorbis --enable-libvpx --enable-libwavpack --enable-libwebp --enable-libx265 --enable-libxvid --enable-libzvbi --enable-openal --enable-opengl --enable-x11grab --enable-libdc1394 --enable-libiec61883 --enable-libzmq --enable-frei0r --enable-libx264 --enable-libopencv
  libavutil      54. 31.100 / 54. 31.100
  libavcodec     56. 60.100 / 56. 60.100
  libavformat    56. 40.101 / 56. 40.101
  libavdevice    56.  4.100 / 56.  4.100
  libavfilter     5. 40.101 /  5. 40.101
  libavresample   2.  1.  0 /  2.  1.  0
  libswscale      3.  1.101 /  3.  1.101
  libswresample   1.  2.101 /  1.  2.101
  libpostproc    53.  3.100 / 53.  3.100
[mp3 @ 0x185a8c0] Unknown attached picture mimetype: ('image/png', None), skipping.
[mp3 @ 0x185a8c0] Skipping 0 bytes of junk at 17522.
Input #0, mp3, from 'jan-andrzej-morsztyn-nadgrobek-perlisi.mp3':
  Metadata:
    title           : Jan Andrzej Morsztyn, "Nadgrobek Perlisi"
    artist          : Piotr Głowacki
    album           : Wolne Lektury
    encoder         : Lavf53.21.0
    genre           : Speech
    originator_reference: v69vMdas2mgaaaGk
    date            : 2008-09-26
    performer       : Jakub Kowalski
    album_artist    : Fundacja Nowoczesna Polska
    time_reference  : 42067053
    copyright       : 2008 Fundacja Nowoczesna Polska. Licensed to the public under http://creativecommons.org/licenses/by-sa/3.0/deed.pl verify at http://wolnelektury.pl/katalog/lektura/nadgrobek-perlisi/
    creation_time   : 0009-37-17
    encoded_by      : Pro Tools
    publisher       : Fundacja Nowoczesna Polska
  Duration: 00:01:34.98, start: 0.000000, bitrate: 65 kb/s
    Stream #0:0: Audio: mp3, 44100 Hz, mono, s16p, 64 kb/s
Output #0, null, to 'pipe:':
  Metadata:
    title           : Jan Andrzej Morsztyn, "Nadgrobek Perlisi"
    artist          : Piotr Głowacki
    album           : Wolne Lektury
    publisher       : Fundacja Nowoczesna Polska
    genre           : Speech
    originator_reference: v69vMdas2mgaaaGk
    date            : 2008-09-26
    performer       : Jakub Kowalski
    album_artist    : Fundacja Nowoczesna Polska
    time_reference  : 42067053
    copyright       : 2008 Fundacja Nowoczesna Polska. Licensed to the public under http://creativecommons.org/licenses/by-sa/3.0/deed.pl verify at http://wolnelektury.pl/katalog/lektura/nadgrobek-perlisi/
    encoded_by      : Pro Tools
    encoder         : Lavf56.40.101
    Stream #0:0: Audio: pcm_s16le, 44100 Hz, mono, s16, 705 kb/s
    Metadata:
      encoder         : Lavc56.60.100 pcm_s16le
Stream mapping:
  Stream #0:0 -> #0:0 (mp3 (native) -> pcm_s16le (native))
Press [q] to stop, [?] for help
[silencedetect @ 0x18783e0] silence_start: -0.00367347
[silencedetect @ 0x18783e0] silence_end: 0.679184 | silence_duration: 0.682857
[silencedetect @ 0x18783e0] silence_start: 2.00776
[silencedetect @ 0x18783e0] silence_end: 2.87347 | silence_duration: 0.865714
[silencedetect @ 0x18783e0] silence_start: 4.17592
[silencedetect @ 0x18783e0] silence_end: 6.50449 | silence_duration: 2.32857
[silencedetect @ 0x18783e0] silence_start: 7.38898
[silencedetect @ 0x18783e0] silence_end: 8.59429 | silence_duration: 1.20531
[silencedetect @ 0x18783e0] silence_start: 15.8788
[silencedetect @ 0x18783e0] silence_end: 16.7706 | silence_duration: 0.891837
[silencedetect @ 0x18783e0] silence_start: 18.0992
[silencedetect @ 0x18783e0] silence_end: 18.782 | silence_duration: 0.682857
[silencedetect @ 0x18783e0] silence_start: 21.7302
[silencedetect @ 0x18783e0] silence_end: 23.0139 | silence_duration: 1.28367
[silencedetect @ 0x18783e0] silence_start: 24.1073
[silencedetect @ 0x18783e0] silence_end: 24.9208 | silence_duration: 0.813469
[silencedetect @ 0x18783e0] silence_start: 26.4322
[silencedetect @ 0x18783e0] silence_end: 27.3763 | silence_duration: 0.944082
[silencedetect @ 0x18783e0] silence_start: 30.1416
[silencedetect @ 0x18783e0] silence_end: 31.5559 | silence_duration: 1.41429
[silencedetect @ 0x18783e0] silence_start: 32.5449
[silencedetect @ 0x18783e0] silence_end: 33.7763 | silence_duration: 1.23143
[silencedetect @ 0x18783e0] silence_start: 37.1947
[silencedetect @ 0x18783e0] silence_end: 38.3216 | silence_duration: 1.12694
[silencedetect @ 0x18783e0] silence_start: 41.1653
[silencedetect @ 0x18783e0] silence_end: 41.7959 | silence_duration: 0.630612
[silencedetect @ 0x18783e0] silence_start: 43.5163
[silencedetect @ 0x18783e0] silence_end: 44.5649 | silence_duration: 1.04857
[silencedetect @ 0x18783e0] silence_start: 48.2706
[silencedetect @ 0x18783e0] silence_end: 49.5543 | silence_duration: 1.28367
[silencedetect @ 0x18783e0] silence_start: 50.5171
[silencedetect @ 0x18783e0] silence_end: 51.3829 | silence_duration: 0.865714
[silencedetect @ 0x18783e0] silence_start: 52.6069
[silencedetect @ 0x18783e0] silence_end: 53.4465 | silence_duration: 0.839592
[silencedetect @ 0x18783e0] silence_start: 56.0812
[silencedetect @ 0x18783e0] silence_end: 56.6596 | silence_duration: 0.578367
[silencedetect @ 0x18783e0] silence_start: 58.4584
[silencedetect @ 0x18783e0] silence_end: 59.298 | silence_duration: 0.839592
[silencedetect @ 0x18783e0] silence_start: 61.6976
[silencedetect @ 0x18783e0] silence_end: 63.2163 | silence_duration: 1.51878
[silencedetect @ 0x18783e0] silence_start: 65.1718
[silencedetect @ 0x18783e0] silence_end: 66.1682 | silence_duration: 0.996327
[silencedetect @ 0x18783e0] silence_start: 73.2959
[silencedetect @ 0x18783e0] silence_end: 74.6057 | silence_duration: 1.3098
[silencedetect @ 0x18783e0] silence_start: 77.0314
[silencedetect @ 0x18783e0] silence_end: 78.08 | silence_duration: 1.04857
[silencedetect @ 0x18783e0] silence_start: 79.931
[silencedetect @ 0x18783e0] silence_end: 80.9796 | silence_duration: 1.04857
[silencedetect @ 0x18783e0] silence_start: 85.4951
[silencedetect @ 0x18783e0] silence_end: 86.7265 | silence_duration: 1.23143
[silencedetect @ 0x18783e0] silence_start: 87.8984
[silencedetect @ 0x18783e0] silence_end: 88.6596 | silence_duration: 0.761224
[silencedetect @ 0x18783e0] silence_start: 89.8314
[silencedetect @ 0x18783e0] silence_end: 90.3576 | silence_duration: 0.526122
[silencedetect @ 0x18783e0] silence_start: 92.7571
size=N/A time=00:01:34.98 bitrate=N/A    
video:0kB audio:8181kB subtitle:0kB other streams:0kB global headers:0kB muxing overhead: unknown
